<?xml version="1.0" encoding="utf-8"?>
<!-- Generator: Adobe Illustrator 16.0.0, SVG Export Plug-In . SVG Version: 6.00 Build 0)  -->
<!DOCTYPE svg PUBLIC "-//W3C//DTD SVG 1.1//EN" "http://www.w3.org/Graphics/SVG/1.1/DTD/svg11.dtd">
<svg version="1.1" id="Layer_1" xmlns="http://www.w3.org/2000/svg" xmlns:xlink="http://www.w3.org/1999/xlink" x="0px" y="0px"
	 width="1414.668px" height="351.333px" viewBox="0 0 1414.668 351.333" enable-background="new 0 0 1414.668 351.333"
	 xml:space="preserve">
<g>
	<g>
		<circle fill="#B2516C" cx="144.999" cy="40.89" r="36.25"/>
		<path fill="#3B3251" d="M151.249,70.89c-20.021,0-36.25-16.23-36.25-36.25c0-8.417,2.878-16.157,7.689-22.31
			c-8.481,6.634-13.939,16.955-13.939,28.56c0,20.02,16.229,36.25,36.25,36.25c11.603,0,21.925-5.459,28.562-13.94
			C167.406,68.014,159.666,70.89,151.249,70.89z"/>
	</g>
	<g>
		<circle fill="#B2516C" cx="211.074" cy="318.058" r="27.188"/>
		<path fill="#3B3251" d="M215.762,340.558c-15.017,0-27.188-12.173-27.188-27.188c0-6.311,2.158-12.116,5.768-16.73
			c-6.363,4.976-10.455,12.717-10.455,21.418c0,15.015,12.171,27.188,27.188,27.188c8.701,0,16.443-4.094,21.422-10.454
			C227.879,338.402,222.073,340.558,215.762,340.558z"/>
	</g>
	<g>
		<circle fill="#B2516C" cx="325.73" cy="215.238" r="27.188"/>
		<path fill="#3B3251" d="M330.418,237.738c-15.018,0-27.188-12.173-27.188-27.188c0-6.313,2.158-12.119,5.767-16.733
			c-6.362,4.976-10.454,12.717-10.454,21.421c0,15.015,12.17,27.188,27.188,27.188c8.701,0,16.443-4.095,21.421-10.457
			C342.535,235.58,336.729,237.738,330.418,237.738z"/>
	</g>
	<g>
		<circle fill="#B2516C" cx="72.5" cy="236.656" r="36.25"/>
		<path fill="#3B3251" d="M78.75,266.656c-20.022,0-36.25-16.23-36.25-36.25c0-8.415,2.876-16.157,7.688-22.31
			c-8.481,6.636-13.938,16.956-13.938,28.56c0,20.02,16.228,36.25,36.25,36.25c11.602,0,21.924-5.459,28.56-13.94
			C94.907,263.78,87.165,266.656,78.75,266.656z"/>
	</g>
	<g>
		<circle fill="#B2516C" cx="191.027" cy="164.708" r="18.125"/>
		<path fill="#3B3251" d="M194.152,179.708c-10.01,0-18.125-8.115-18.125-18.125c0-4.208,1.438-8.079,3.845-11.155
			c-4.24,3.316-6.97,8.478-6.97,14.28c0,10.01,8.115,18.125,18.125,18.125c5.801,0,10.962-2.729,14.279-6.97
			C202.23,178.271,198.361,179.708,194.152,179.708z"/>
	</g>
	<g>
		<circle fill="#B2516C" cx="18.125" cy="106.199" r="18.125"/>
		<path fill="#3B3251" d="M21.25,121.199c-10.01,0-18.125-8.115-18.125-18.125c0-4.208,1.438-8.078,3.845-11.154
			C2.729,95.236,0,100.397,0,106.199c0,10.01,8.115,18.125,18.125,18.125c5.801,0,10.962-2.729,14.279-6.97
			C29.328,119.762,25.459,121.199,21.25,121.199z"/>
	</g>
	<g>
		<circle fill="#B2516C" cx="307.605" cy="82.907" r="18.125"/>
		<path fill="#3B3251" d="M310.73,97.907c-10.01,0-18.125-8.115-18.125-18.125c0-4.208,1.438-8.079,3.846-11.155
			c-4.241,3.317-6.971,8.479-6.971,14.28c0,10.01,8.115,18.125,18.125,18.125c5.801,0,10.962-2.729,14.279-6.971
			C318.809,96.469,314.939,97.907,310.73,97.907z"/>
	</g>
</g>
<g>
	<g>
		<circle fill="#B2516C" cx="498.749" cy="308.995" r="36.25"/>
		<path fill="#3B3251" d="M504.999,338.995c-20.021,0-36.25-16.23-36.25-36.25c0-8.415,2.878-16.157,7.689-22.31
			c-8.481,6.636-13.939,16.956-13.939,28.56c0,20.02,16.229,36.25,36.25,36.25c11.603,0,21.925-5.459,28.562-13.94
			C521.156,336.119,513.416,338.995,504.999,338.995z"/>
	</g>
	<g>
		<circle fill="#B2516C" cx="564.824" cy="31.827" r="27.188"/>
		<path fill="#3B3251" d="M569.512,54.327c-15.017,0-27.188-12.173-27.188-27.188c0-6.313,2.158-12.118,5.768-16.732
			c-6.363,4.976-10.455,12.717-10.455,21.42c0,15.015,12.171,27.188,27.188,27.188c8.701,0,16.443-4.095,21.422-10.456
			C581.629,52.17,575.823,54.327,569.512,54.327z"/>
	</g>
	<g>
		<circle fill="#B2516C" cx="679.48" cy="134.647" r="27.188"/>
		<path fill="#3B3251" d="M684.168,157.147c-15.018,0-27.188-12.173-27.188-27.188c0-6.312,2.158-12.117,5.767-16.731
			c-6.362,4.976-10.454,12.717-10.454,21.419c0,15.015,12.17,27.188,27.188,27.188c8.701,0,16.443-4.094,21.421-10.455
			C696.285,154.991,690.479,157.147,684.168,157.147z"/>
	</g>
	<g>
		<circle fill="#B2516C" cx="426.249" cy="113.229" r="36.249"/>
		<path fill="#3B3251" d="M432.5,143.229c-20.021,0-36.25-16.23-36.25-36.25c0-8.417,2.877-16.157,7.688-22.31
			C395.457,91.303,390,101.624,390,113.229c0,20.02,16.229,36.25,36.25,36.25c11.602,0,21.924-5.459,28.561-13.94
			C448.658,140.353,440.916,143.229,432.5,143.229z"/>
	</g>
	<g>
		<circle fill="#B2516C" cx="544.777" cy="185.177" r="18.125"/>
		<path fill="#3B3251" d="M547.902,200.177c-10.01,0-18.125-8.115-18.125-18.125c0-4.206,1.438-8.078,3.845-11.154
			c-4.24,3.317-6.97,8.479-6.97,14.279c0,10.01,8.115,18.125,18.125,18.125c5.801,0,10.962-2.729,14.279-6.97
			C555.98,198.739,552.111,200.177,547.902,200.177z"/>
	</g>
	<g>
		<circle fill="#B2516C" cx="371.875" cy="243.686" r="18.125"/>
		<path fill="#3B3251" d="M375,258.686c-10.01,0-18.125-8.115-18.125-18.125c0-4.207,1.438-8.079,3.846-11.155
			c-4.24,3.318-6.971,8.479-6.971,14.28c0,10.01,8.115,18.125,18.125,18.125c5.801,0,10.963-2.729,14.28-6.971
			C383.079,257.247,379.209,258.686,375,258.686z"/>
	</g>
	<g>
		<circle fill="#B2516C" cx="661.355" cy="266.979" r="18.125"/>
		<path fill="#3B3251" d="M664.48,281.979c-10.01,0-18.125-8.115-18.125-18.125c0-4.209,1.438-8.078,3.846-11.154
			c-4.241,3.315-6.971,8.477-6.971,14.279c0,10.01,8.115,18.125,18.125,18.125c5.801,0,10.962-2.729,14.279-6.97
			C672.559,280.541,668.689,281.979,664.48,281.979z"/>
	</g>
</g>
<g>
	<g>
		<circle fill="#B2516C" cx="852.707" cy="40.89" r="36.25"/>
		<path fill="#3B3251" d="M858.957,70.89c-20.021,0-36.25-16.23-36.25-36.25c0-8.417,2.878-16.157,7.689-22.31
			c-8.481,6.634-13.939,16.955-13.939,28.56c0,20.02,16.229,36.25,36.25,36.25c11.603,0,21.925-5.459,28.562-13.94
			C875.114,68.014,867.374,70.89,858.957,70.89z"/>
	</g>
	<g>
		<circle fill="#B2516C" cx="918.782" cy="318.058" r="27.188"/>
		<path fill="#3B3251" d="M923.47,340.558c-15.017,0-27.188-12.173-27.188-27.188c0-6.311,2.158-12.116,5.768-16.73
			c-6.363,4.976-10.455,12.717-10.455,21.418c0,15.015,12.171,27.188,27.188,27.188c8.701,0,16.443-4.094,21.422-10.454
			C935.587,338.402,929.781,340.558,923.47,340.558z"/>
	</g>
	<g>
		<circle fill="#B2516C" cx="1033.438" cy="215.238" r="27.188"/>
		<path fill="#3B3251" d="M1038.126,237.738c-15.018,0-27.188-12.173-27.188-27.188c0-6.313,2.158-12.119,5.767-16.733
			c-6.362,4.976-10.454,12.717-10.454,21.421c0,15.015,12.17,27.188,27.188,27.188c8.701,0,16.443-4.095,21.421-10.457
			C1050.243,235.58,1044.437,237.738,1038.126,237.738z"/>
	</g>
	<g>
		<circle fill="#B2516C" cx="780.208" cy="236.656" r="36.25"/>
		<path fill="#3B3251" d="M786.458,266.656c-20.022,0-36.25-16.23-36.25-36.25c0-8.415,2.876-16.157,7.688-22.31
			c-8.481,6.636-13.938,16.956-13.938,28.56c0,20.02,16.228,36.25,36.25,36.25c11.602,0,21.924-5.459,28.56-13.94
			C802.615,263.78,794.873,266.656,786.458,266.656z"/>
	</g>
	<g>
		<circle fill="#B2516C" cx="898.735" cy="164.708" r="18.125"/>
		<path fill="#3B3251" d="M901.86,179.708c-10.01,0-18.125-8.115-18.125-18.125c0-4.208,1.438-8.079,3.845-11.155
			c-4.24,3.316-6.97,8.478-6.97,14.28c0,10.01,8.115,18.125,18.125,18.125c5.801,0,10.962-2.729,14.279-6.97
			C909.938,178.271,906.069,179.708,901.86,179.708z"/>
	</g>
	<g>
		<circle fill="#B2516C" cx="725.833" cy="106.199" r="18.125"/>
		<path fill="#3B3251" d="M728.958,121.199c-10.01,0-18.125-8.115-18.125-18.125c0-4.208,1.438-8.078,3.845-11.154
			c-4.24,3.316-6.97,8.478-6.97,14.279c0,10.01,8.115,18.125,18.125,18.125c5.801,0,10.962-2.729,14.279-6.97
			C737.036,119.762,733.167,121.199,728.958,121.199z"/>
	</g>
	<g>
		<circle fill="#B2516C" cx="1015.313" cy="82.907" r="18.125"/>
		<path fill="#3B3251" d="M1018.438,97.907c-10.01,0-18.125-8.115-18.125-18.125c0-4.208,1.438-8.079,3.846-11.155
			c-4.241,3.317-6.971,8.479-6.971,14.28c0,10.01,8.115,18.125,18.125,18.125c5.801,0,10.962-2.729,14.279-6.971
			C1026.517,96.469,1022.647,97.907,1018.438,97.907z"/>
	</g>
</g>
<g>
	<g>
		<circle fill="#B2516C" cx="1206.749" cy="308.995" r="36.25"/>
		<path fill="#3B3251" d="M1212.999,338.995c-20.021,0-36.25-16.23-36.25-36.25c0-8.415,2.878-16.157,7.689-22.31
			c-8.481,6.636-13.939,16.956-13.939,28.56c0,20.02,16.229,36.25,36.25,36.25c11.603,0,21.925-5.459,28.562-13.94
			C1229.156,336.119,1221.416,338.995,1212.999,338.995z"/>
	</g>
	<g>
		<circle fill="#B2516C" cx="1272.824" cy="31.827" r="27.188"/>
		<path fill="#3B3251" d="M1277.512,54.327c-15.017,0-27.188-12.173-27.188-27.188c0-6.313,2.158-12.118,5.768-16.732
			c-6.363,4.976-10.455,12.717-10.455,21.42c0,15.015,12.171,27.188,27.188,27.188c8.701,0,16.443-4.095,21.422-10.456
			C1289.629,52.17,1283.823,54.327,1277.512,54.327z"/>
	</g>
	<g>
		<circle fill="#B2516C" cx="1387.48" cy="134.647" r="27.188"/>
		<path fill="#3B3251" d="M1392.168,157.147c-15.018,0-27.188-12.173-27.188-27.188c0-6.312,2.158-12.117,5.767-16.731
			c-6.362,4.976-10.454,12.717-10.454,21.419c0,15.015,12.17,27.188,27.188,27.188c8.701,0,16.443-4.094,21.421-10.455
			C1404.285,154.991,1398.479,157.147,1392.168,157.147z"/>
	</g>
	<g>
		<circle fill="#B2516C" cx="1134.249" cy="113.229" r="36.249"/>
		<path fill="#3B3251" d="M1140.5,143.229c-20.021,0-36.25-16.23-36.25-36.25c0-8.417,2.877-16.157,7.688-22.31
			c-8.481,6.634-13.938,16.955-13.938,28.56c0,20.02,16.229,36.25,36.25,36.25c11.602,0,21.924-5.459,28.561-13.94
			C1156.658,140.353,1148.916,143.229,1140.5,143.229z"/>
	</g>
	<g>
		<circle fill="#B2516C" cx="1252.777" cy="185.177" r="18.125"/>
		<path fill="#3B3251" d="M1255.902,200.177c-10.01,0-18.125-8.115-18.125-18.125c0-4.206,1.438-8.078,3.845-11.154
			c-4.24,3.317-6.97,8.479-6.97,14.279c0,10.01,8.115,18.125,18.125,18.125c5.801,0,10.962-2.729,14.279-6.97
			C1263.98,198.739,1260.111,200.177,1255.902,200.177z"/>
	</g>
	<g>
		<circle fill="#B2516C" cx="1079.875" cy="243.686" r="18.125"/>
		<path fill="#3B3251" d="M1083,258.686c-10.01,0-18.125-8.115-18.125-18.125c0-4.207,1.438-8.079,3.846-11.155
			c-4.24,3.318-6.971,8.479-6.971,14.28c0,10.01,8.115,18.125,18.125,18.125c5.801,0,10.963-2.729,14.28-6.971
			C1091.079,257.247,1087.209,258.686,1083,258.686z"/>
	</g>
	<g>
		<circle fill="#B2516C" cx="1369.355" cy="266.979" r="18.125"/>
		<path fill="#3B3251" d="M1372.48,281.979c-10.01,0-18.125-8.115-18.125-18.125c0-4.209,1.438-8.078,3.846-11.154
			c-4.241,3.315-6.971,8.477-6.971,14.279c0,10.01,8.115,18.125,18.125,18.125c5.801,0,10.962-2.729,14.279-6.97
			C1380.559,280.541,1376.689,281.979,1372.48,281.979z"/>
	</g>
</g>
</svg>
