<?xml version="1.0" encoding="utf-8"?>
<!-- Generator: Adobe Illustrator 16.0.0, SVG Export Plug-In . SVG Version: 6.00 Build 0)  -->
<!DOCTYPE svg PUBLIC "-//W3C//DTD SVG 1.1//EN" "http://www.w3.org/Graphics/SVG/1.1/DTD/svg11.dtd">
<svg version="1.1" id="Layer_1" xmlns="http://www.w3.org/2000/svg" xmlns:xlink="http://www.w3.org/1999/xlink" x="0px" y="0px"
	 width="1744.688px" height="399.094px" viewBox="0 0 1744.688 399.094" enable-background="new 0 0 1744.688 399.094"
	 xml:space="preserve">
<g>
	<path fill="#B2516C" d="M744.836,156.281h-45c-5.177,0-9.375-4.197-9.375-9.375s4.198-9.375,9.375-9.375h15
		c5.178,0,9.375-4.197,9.375-9.375s-4.197-9.375-9.375-9.375H574.961c-5.177,0-9.375,4.197-9.375,9.375s4.198,9.375,9.375,9.375
		h64.875c5.178,0,9.375,4.197,9.375,9.375s-4.197,9.375-9.375,9.375h-27c-5.177,0-9.375,4.197-9.375,9.375s4.198,9.375,9.375,9.375
		h132c5.178,0,9.375-4.197,9.375-9.375S750.014,156.281,744.836,156.281z"/>
	<path fill="#B2516C" d="M264.836,216.281h-45c-5.177,0-9.375-4.197-9.375-9.375s4.198-9.375,9.375-9.375h15
		c5.178,0,9.375-4.197,9.375-9.375s-4.197-9.375-9.375-9.375H94.961c-5.177,0-9.375,4.197-9.375,9.375s4.198,9.375,9.375,9.375
		h64.875c5.178,0,9.375,4.197,9.375,9.375s-4.197,9.375-9.375,9.375h-27c-5.177,0-9.375,4.197-9.375,9.375s4.198,9.375,9.375,9.375
		h132c5.178,0,9.375-4.197,9.375-9.375S270.014,216.281,264.836,216.281z"/>
	<path fill="#B2516C" d="M583.875,324.66h-45c-5.178,0-9.375-4.198-9.375-9.375c0-5.178,4.197-9.375,9.375-9.375h15
		c5.178,0,9.375-4.198,9.375-9.375c0-5.178-4.197-9.375-9.375-9.375H414c-5.178,0-9.375,4.197-9.375,9.375
		c0,5.177,4.197,9.375,9.375,9.375h64.875c5.178,0,9.375,4.197,9.375,9.375c0,5.177-4.197,9.375-9.375,9.375h-27
		c-5.178,0-9.375,4.197-9.375,9.375c0,5.177,4.197,9.375,9.375,9.375h132c5.178,0,9.375-4.198,9.375-9.375
		C593.25,328.857,589.053,324.66,583.875,324.66z"/>
	<path fill="#B2516C" d="M473,180.406h-7.5c-5.178,0-9.375-4.197-9.375-9.375s4.197-9.375,9.375-9.375h7.5
		c5.178,0,9.375-4.197,9.375-9.375s-4.197-9.375-9.375-9.375h-60c-5.178,0-9.375,4.197-9.375,9.375s4.197,9.375,9.375,9.375h7.5
		c5.178,0,9.375,4.197,9.375,9.375s-4.197,9.375-9.375,9.375H413c-5.178,0-9.375,4.197-9.375,9.375s4.197,9.375,9.375,9.375h60
		c5.178,0,9.375-4.197,9.375-9.375S478.178,180.406,473,180.406z"/>
	<path fill="#B2516C" d="M707.25,48.656h-7.5c-5.178,0-9.375-4.197-9.375-9.375s4.197-9.375,9.375-9.375h7.5
		c5.178,0,9.375-4.197,9.375-9.375s-4.197-9.375-9.375-9.375h-60c-5.178,0-9.375,4.197-9.375,9.375s4.197,9.375,9.375,9.375h7.5
		c5.178,0,9.375,4.197,9.375,9.375s-4.197,9.375-9.375,9.375h-7.5c-5.178,0-9.375,4.197-9.375,9.375s4.197,9.375,9.375,9.375h60
		c5.178,0,9.375-4.197,9.375-9.375S712.428,48.656,707.25,48.656z"/>
	<path fill="#B2516C" d="M811.25,380.344h-7.5c-5.178,0-9.375-4.197-9.375-9.375s4.197-9.375,9.375-9.375h7.5
		c5.178,0,9.375-4.197,9.375-9.375s-4.197-9.375-9.375-9.375h-60c-5.178,0-9.375,4.197-9.375,9.375s4.197,9.375,9.375,9.375h7.5
		c5.178,0,9.375,4.197,9.375,9.375s-4.197,9.375-9.375,9.375h-7.5c-5.178,0-9.375,4.197-9.375,9.375s4.197,9.375,9.375,9.375h60
		c5.178,0,9.375-4.197,9.375-9.375S816.428,380.344,811.25,380.344z"/>
	<path fill="#B2516C" d="M538.211,56.942h-127.5c-5.178,0-9.375-4.198-9.375-9.375c0-5.178,4.197-9.375,9.375-9.375h52.5
		c5.178,0,9.375-4.198,9.375-9.375c0-5.178-4.197-9.375-9.375-9.375h-127.5c-5.178,0-9.375,4.197-9.375,9.375
		c0,5.177,4.197,9.375,9.375,9.375h15c5.177,0,9.375,4.197,9.375,9.375c0,5.177-4.198,9.375-9.375,9.375h-37.5
		c-5.178,0-9.375,4.197-9.375,9.375c0,5.177,4.197,9.375,9.375,9.375h225c5.178,0,9.375-4.198,9.375-9.375
		C547.586,61.14,543.389,56.942,538.211,56.942z"/>
	<path fill="#B2516C" d="M301.786,338.531h-127.5c-5.178,0-9.375-4.197-9.375-9.375s4.197-9.375,9.375-9.375h52.5
		c5.177,0,9.375-4.197,9.375-9.375s-4.198-9.375-9.375-9.375h-127.5c-5.178,0-9.375,4.197-9.375,9.375s4.197,9.375,9.375,9.375h15
		c5.177,0,9.375,4.197,9.375,9.375s-4.198,9.375-9.375,9.375h-37.5c-5.178,0-9.375,4.197-9.375,9.375s4.197,9.375,9.375,9.375h225
		c5.177,0,9.375-4.197,9.375-9.375S306.962,338.531,301.786,338.531z"/>
	<path fill="#B2516C" d="M862.75,255.531h-75h45c-5.178,0-9.375-4.197-9.375-9.375s4.197-9.375,9.375-9.375h15
		c5.178,0,9.375-4.197,9.375-9.375s-4.197-9.375-9.375-9.375h-195c-5.178,0-9.375,4.197-9.375,9.375s4.197,9.375,9.375,9.375h60
		c5.178,0,9.375,4.197,9.375,9.375s-4.197,9.375-9.375,9.375h-15c-5.178,0-9.375,4.197-9.375,9.375s4.197,9.375,9.375,9.375h165
		c5.178,0,9.375-4.197,9.375-9.375S867.928,255.531,862.75,255.531z"/>
	<path fill="#B2516C" d="M219.375,91.031h-75h45c-5.178,0-9.375-4.197-9.375-9.375s4.197-9.375,9.375-9.375h15
		c5.178,0,9.375-4.197,9.375-9.375s-4.197-9.375-9.375-9.375h-195C4.197,53.531,0,57.729,0,62.906s4.197,9.375,9.375,9.375h60
		c5.178,0,9.375,4.197,9.375,9.375s-4.197,9.375-9.375,9.375h-15c-5.178,0-9.375,4.197-9.375,9.375s4.197,9.375,9.375,9.375h165
		c5.178,0,9.375-4.197,9.375-9.375S224.553,91.031,219.375,91.031z"/>
</g>
<g>
	<path fill="#B2516C" d="M1617.398,156.281h-45c-5.177,0-9.375-4.197-9.375-9.375s4.198-9.375,9.375-9.375h15
		c5.178,0,9.375-4.197,9.375-9.375s-4.197-9.375-9.375-9.375h-139.875c-5.177,0-9.375,4.197-9.375,9.375s4.198,9.375,9.375,9.375
		h64.875c5.178,0,9.375,4.197,9.375,9.375s-4.197,9.375-9.375,9.375h-27c-5.177,0-9.375,4.197-9.375,9.375s4.198,9.375,9.375,9.375
		h132c5.178,0,9.375-4.197,9.375-9.375S1622.576,156.281,1617.398,156.281z"/>
	<path fill="#B2516C" d="M1137.398,216.281h-45c-5.177,0-9.375-4.197-9.375-9.375s4.198-9.375,9.375-9.375h15
		c5.178,0,9.375-4.197,9.375-9.375s-4.197-9.375-9.375-9.375H967.523c-5.177,0-9.375,4.197-9.375,9.375s4.198,9.375,9.375,9.375
		h64.875c5.178,0,9.375,4.197,9.375,9.375s-4.197,9.375-9.375,9.375h-27c-5.177,0-9.375,4.197-9.375,9.375s4.198,9.375,9.375,9.375
		h132c5.178,0,9.375-4.197,9.375-9.375S1142.576,216.281,1137.398,216.281z"/>
	<path fill="#B2516C" d="M1456.438,324.66h-45c-5.178,0-9.375-4.198-9.375-9.375c0-5.178,4.197-9.375,9.375-9.375h15
		c5.178,0,9.375-4.198,9.375-9.375c0-5.178-4.197-9.375-9.375-9.375h-139.875c-5.178,0-9.375,4.197-9.375,9.375
		c0,5.177,4.197,9.375,9.375,9.375h64.875c5.178,0,9.375,4.197,9.375,9.375c0,5.177-4.197,9.375-9.375,9.375h-27
		c-5.178,0-9.375,4.197-9.375,9.375c0,5.177,4.197,9.375,9.375,9.375h132c5.178,0,9.375-4.198,9.375-9.375
		C1465.813,328.857,1461.615,324.66,1456.438,324.66z"/>
	<path fill="#B2516C" d="M1345.563,180.406h-7.5c-5.178,0-9.375-4.197-9.375-9.375s4.197-9.375,9.375-9.375h7.5
		c5.178,0,9.375-4.197,9.375-9.375s-4.197-9.375-9.375-9.375h-60c-5.178,0-9.375,4.197-9.375,9.375s4.197,9.375,9.375,9.375h7.5
		c5.178,0,9.375,4.197,9.375,9.375s-4.197,9.375-9.375,9.375h-7.5c-5.178,0-9.375,4.197-9.375,9.375s4.197,9.375,9.375,9.375h60
		c5.178,0,9.375-4.197,9.375-9.375S1350.74,180.406,1345.563,180.406z"/>
	<path fill="#B2516C" d="M1579.813,48.656h-7.5c-5.178,0-9.375-4.197-9.375-9.375s4.197-9.375,9.375-9.375h7.5
		c5.178,0,9.375-4.197,9.375-9.375s-4.197-9.375-9.375-9.375h-60c-5.178,0-9.375,4.197-9.375,9.375s4.197,9.375,9.375,9.375h7.5
		c5.178,0,9.375,4.197,9.375,9.375s-4.197,9.375-9.375,9.375h-7.5c-5.178,0-9.375,4.197-9.375,9.375s4.197,9.375,9.375,9.375h60
		c5.178,0,9.375-4.197,9.375-9.375S1584.99,48.656,1579.813,48.656z"/>
	<path fill="#B2516C" d="M1683.813,380.344h-7.5c-5.178,0-9.375-4.197-9.375-9.375s4.197-9.375,9.375-9.375h7.5
		c5.178,0,9.375-4.197,9.375-9.375s-4.197-9.375-9.375-9.375h-60c-5.178,0-9.375,4.197-9.375,9.375s4.197,9.375,9.375,9.375h7.5
		c5.178,0,9.375,4.197,9.375,9.375s-4.197,9.375-9.375,9.375h-7.5c-5.178,0-9.375,4.197-9.375,9.375s4.197,9.375,9.375,9.375h60
		c5.178,0,9.375-4.197,9.375-9.375S1688.99,380.344,1683.813,380.344z"/>
	<path fill="#B2516C" d="M1410.773,56.942h-127.5c-5.178,0-9.375-4.198-9.375-9.375c0-5.178,4.197-9.375,9.375-9.375h52.5
		c5.178,0,9.375-4.198,9.375-9.375c0-5.178-4.197-9.375-9.375-9.375h-127.5c-5.178,0-9.375,4.197-9.375,9.375
		c0,5.177,4.197,9.375,9.375,9.375h15c5.178,0,9.375,4.197,9.375,9.375c0,5.177-4.197,9.375-9.375,9.375h-37.5
		c-5.178,0-9.375,4.197-9.375,9.375c0,5.177,4.197,9.375,9.375,9.375h225c5.178,0,9.375-4.198,9.375-9.375
		C1420.148,61.14,1415.951,56.942,1410.773,56.942z"/>
	<path fill="#B2516C" d="M1174.348,338.531h-127.5c-5.178,0-9.375-4.197-9.375-9.375s4.197-9.375,9.375-9.375h52.5
		c5.178,0,9.375-4.197,9.375-9.375s-4.197-9.375-9.375-9.375h-127.5c-5.178,0-9.375,4.197-9.375,9.375s4.197,9.375,9.375,9.375h15
		c5.178,0,9.375,4.197,9.375,9.375s-4.197,9.375-9.375,9.375h-37.5c-5.178,0-9.375,4.197-9.375,9.375s4.197,9.375,9.375,9.375h225
		c5.178,0,9.375-4.197,9.375-9.375S1179.525,338.531,1174.348,338.531z"/>
	<path fill="#B2516C" d="M1735.313,255.531h-75h45c-5.178,0-9.375-4.197-9.375-9.375s4.197-9.375,9.375-9.375h15
		c5.178,0,9.375-4.197,9.375-9.375s-4.197-9.375-9.375-9.375h-195c-5.178,0-9.375,4.197-9.375,9.375s4.197,9.375,9.375,9.375h60
		c5.178,0,9.375,4.197,9.375,9.375s-4.197,9.375-9.375,9.375h-15c-5.178,0-9.375,4.197-9.375,9.375s4.197,9.375,9.375,9.375h165
		c5.178,0,9.375-4.197,9.375-9.375S1740.49,255.531,1735.313,255.531z"/>
	<path fill="#B2516C" d="M1091.938,91.031h-75h45c-5.178,0-9.375-4.197-9.375-9.375s4.197-9.375,9.375-9.375h15
		c5.178,0,9.375-4.197,9.375-9.375s-4.197-9.375-9.375-9.375h-195c-5.178,0-9.375,4.197-9.375,9.375s4.197,9.375,9.375,9.375h60
		c5.178,0,9.375,4.197,9.375,9.375s-4.197,9.375-9.375,9.375h-15c-5.178,0-9.375,4.197-9.375,9.375s4.197,9.375,9.375,9.375h165
		c5.178,0,9.375-4.197,9.375-9.375S1097.115,91.031,1091.938,91.031z"/>
</g>
</svg>
