<?xml version="1.0" encoding="utf-8"?>
<!-- Generator: Adobe Illustrator 16.0.0, SVG Export Plug-In . SVG Version: 6.00 Build 0)  -->
<!DOCTYPE svg PUBLIC "-//W3C//DTD SVG 1.1//EN" "http://www.w3.org/Graphics/SVG/1.1/DTD/svg11.dtd">
<svg version="1.1" id="Layer_1" xmlns="http://www.w3.org/2000/svg" xmlns:xlink="http://www.w3.org/1999/xlink" x="0px" y="0px"
	 width="178.174px" height="142.413px" viewBox="0 0 178.174 142.413" enable-background="new 0 0 178.174 142.413"
	 xml:space="preserve">
<g>
	<path fill-rule="evenodd" clip-rule="evenodd" fill="#66456D" d="M175.828,112.036c0.882,4.551-0.012,8.635-1.67,12.999
		c-1.623,4.272-4.281,6.707-7.772,9.252c-2.868,2.089-5.433,3.943-9.038,4.682c-6.367,1.303-11.753-0.335-16.895-3.942
		c-28.309-19.87-56.654-39.693-84.987-59.533c-7.029-4.922-14.013-9.911-21.107-14.737c-3.754-2.555-7.606-4.933-11.613-7.15
		c-5.715-3.166-9.007-6.288-13.95-10.671c-1.18-1.048-4.603-5.021-2.581-7.502c2.755-3.375,5.374-1.393,7.406-0.065
		c5.331,3.475,15.266,10.42,16.1,11.281c1.521,1.569,5.24,1.866,7.092,0.675c1.792-1.148,2.174-4.622,0.547-6.046
		c-1.168-1.02-20.722-14.845-29.443-20.503c-3.314-2.149-5.444-5.831-2.796-8.635c2.741-2.903,7.301-0.5,8.578,0.396
		c9.374,6.562,18.795,13.058,28.076,19.747c1.739,1.256,5.081,1.345,6.496,0.371c1.706-1.174,1.111-3.008-0.091-5.186
		c-0.691-1.253-18.694-14.334-19.828-15.403c-1.044-0.984-3.167-4.054-1.032-7.037c2.053-2.865,4.793-2.401,7.581-0.656
		c1.322,0.827,87.692,61.566,130.379,91.28C171.225,99.789,174.516,105.167,175.828,112.036z"/>
	<path fill-rule="evenodd" clip-rule="evenodd" fill="#EE7183" d="M123.244,75.079c2.25-0.44,4.223-0.708,6.406,0.988
		c5.077,3.947,10.367,7.652,15.814,11.072c2.34,1.471,2.763,3.417,3.117,5.68c1.361,9.255-4.475,15.41-9.768,21.536
		c-3.061,3.547-6.183,8.219-12.318,6.154c-5.414-3.11-10.918-6-15-11.046c-1.849-2.286-4.631-3.823-6.99-5.699
		c0.344-0.412,0.419-0.777,0.223-1.096c-0.195-0.318-0.357-0.467-0.492-0.443c-0.604-0.423-1.207-0.843-1.813-1.267
		c-0.602-0.423-1.203-0.845-1.809-1.268c-0.604-0.423-1.205-0.845-1.811-1.265c-0.604-0.426-1.205-0.847-1.809-1.268
		c-0.604-0.425-1.205-0.846-1.81-1.268c-0.888-0.799-1.526-1.779-2.053-2.824c-0.331-0.664-0.675-1.334-1.024-1.986
		c0.322-4.054,3.424-1.956,5.355-2.4c0.273,0.025,0.566,0.043,0.838,0.063c0.508-0.016,1.033-0.043,1.539-0.078
		c-0.023,0.001,0.72-0.077,0.691-0.073c-0.03,0.004,0.648-0.103,0.61-0.098c-0.036,0.001-0.649,0.041-0.687,0.038
		c-0.542-0.078-1.013-0.243-1.477-0.506c-0.869-0.374-1.629-0.894-2.455-1.358c-0.678-0.373-1.322-0.736-2.023-1.088
		c-0.908-0.238-1.616-0.701-2.135-1.422c-1.762-6.41-1.082-7.226,6.373-7.58c1.172,0.012,2.364-0.1,3.465-0.572
		c-0.03-0.029,0.633-0.383,0.616-0.412c0.384-0.359,0.808-0.655,1.268-0.937c0.542-0.247,1.071-0.466,1.624-0.684
		c0.924-0.392,1.813-0.814,2.701-1.279c0.97-0.564,1.82-1.389,3.066-1.243c2.327,1.685,5.318,0.667,7.752,1.904
		c1.18,0.102,2.039,0.832,2.925,1.511C122.518,74.937,122.882,75.007,123.244,75.079z"/>
	<path fill-rule="evenodd" clip-rule="evenodd" fill="#F27885" d="M126.496,120.51c1.794-1.599,3.926-2.956,5.299-4.862
		c1.619-2.248,1.996-5.449,5.963-5.228c0.672,0.036,2.239-2.353,2.076-3.421c-0.512-3.367,1.519-5.065,3.561-6.919
		c0.494-0.448,1.482-1.13,1.395-1.33c-1.746-3.956,2.465-4.019,3.793-5.931c1.495-0.078,3.362-0.769,4.415-0.127
		c4.207,2.573,8.547,5.145,12.099,8.501c4.014,3.794,11.859,13.702,3.469,25.686c-11.217,12.09-14.096,10.414-23.172,6.253
		C138.387,129.92,132.192,125.618,126.496,120.51z"/>
	<path fill-rule="evenodd" clip-rule="evenodd" fill="#A34A76" d="M101.069,93.268c-1.073-0.528-2.103-1.202-3.231-1.538
		c-1.102-0.33-2.308-0.317-3.466-0.454c-0.505,0.762-0.503,1.755-1.119,2.468c-0.624,0.137-1.186,0.008-1.687-0.387
		c-3.836-0.518-5.663-4.971-9.858-5.074c-0.457-0.011-0.848-2.649-1.271-4.068c0.388-0.801,0.899-0.892,1.539-0.271
		c0.88,0.343,1.763,0.688,2.645,1.035c0.065-0.967,0.481-2.101,0.115-2.855c-0.507-1.044-1.711-1.725-2.417-2.703
		c-0.696-0.966-1.145-2.107-1.7-3.17c-0.4-0.253-0.689-0.598-0.873-1.036c0-0.002-0.046-0.691-0.047-0.697
		c0-0.004-0.118-0.692-0.12-0.699c-0.239-0.427-0.444-0.863-0.62-1.342c-0.01-0.591-0.041-1.153-0.104-1.741
		c-0.152-0.93-0.379-1.843,0.249-2.671c0.606-0.257,1.175-0.185,1.698,0.221c0.876,0.354,1.753,0.707,2.63,1.061
		c0.076-0.956,0.566-2.209,0.14-2.808c-0.977-1.364-2.275-2.599-3.675-3.545c-2.493-1.685-4.607-3.678-5.851-6.406
		c-0.354-0.776,0.037-1.892,0.087-2.854c0.617,0.354,1.216,0.74,1.851,1.054c0.867,0.426,1.763,0.797,2.648,1.189
		c0.972,0.82,2.37,0.201,3.349,0.996c0.604,0.424,1.206,0.847,1.809,1.268c0.604,0.423,1.207,0.846,1.811,1.268
		s1.207,0.845,1.81,1.268c0,0,0.411,0.225,0.394,0.212c-0.015-0.012,0.363,0.188,0.341,0.171c-0.022-0.016,0.227,0.262,0.212,0.248
		c-0.017-0.017,0.298-0.117,0.3-0.104c0.003,0.013,0.033-0.314,0.047-0.303c0.017,0.012,0.268-0.172,0.271-0.175
		c0.002-0.004-0.026-0.321-0.026-0.321c1.538-0.271,3.077-0.542,4.616-0.814c0,0,0.461-0.052,0.468-0.039
		c0.012,0.015,0.235-0.409,0.233-0.41c-0.008-0.002-0.26-0.404-0.26-0.411c0-0.006-0.346-0.349-0.346-0.348
		c-0.002,0-0.369-0.33-0.369-0.33c-0.859-0.828-1.844-1.565-2.549-2.512c-0.686-0.921-1.086-2.056-1.613-3.101
		c0.978,0.01,2.207-0.364,2.891,0.086c5.914,3.919,11.414,8.496,18.072,11.218c1.637,0.671,2.246,1.97,2.297,3.633
		c0.636,0.373,1.192,0.862,1.809,1.268c1.504,1.019,2.941,2.136,4.488,3.097c0.905,0.564,2.027,0.866,2.467,2.006
		c0.002,0.775-0.309,1.376-0.982,1.777c-2.654-0.063-5.309-0.123-7.965-0.184c-1.332-0.84-2.875-0.959-4.363-1.256
		c-0.591-0.068-1.186-0.066-1.779,0.009c-0.585,0.094-1.146,0.273-1.675,0.551c-0.583,0.739-0.669,1.624-0.737,2.515
		c-0.273,0.991-1.043,1.383-1.943,1.62c-1.703,0.301-3.425,0.517-5.1,0.936c-0.861,0.215-1.634,0.786-2.445,1.196
		c0.807,0.568,1.66,1.082,2.411,1.72c0.521,0.438,0.894,1.044,1.333,1.578c0.023,2.88,3.77,3.005,4.16,5.612
		c0.182,1.025,0.363,2.05,0.544,3.078C102.192,93.638,101.68,93.729,101.069,93.268z"/>
	<path fill-rule="evenodd" clip-rule="evenodd" fill="#D8667F" d="M118.086,72.815c-2.537-0.175-3.716-1.643-3.891-4.073
		c2.344-0.668,4.128-0.059,5.158,2.263C120.295,72.563,119.801,73.117,118.086,72.815z"/>
	<path fill-rule="evenodd" clip-rule="evenodd" fill="#EE7183" d="M118.086,72.815c0.422-0.604,0.846-1.207,1.268-1.811
		c3.128-0.258,3.128-0.258,3.891,4.074c-1.66,1.495-2.342-0.298-3.346-0.996C119.293,73.659,118.689,73.238,118.086,72.815z"/>
	<path fill-rule="evenodd" clip-rule="evenodd" fill="#974874" d="M69.513,62.51c-0.936-0.814-1.779-1.55-2.623-2.285
		c0.365-0.262,0.697-0.656,1.102-0.762c1.761-0.46,1.969,0.802,2.066,2.041C70.08,61.786,69.748,62.098,69.513,62.51z"/>
	<path fill-rule="evenodd" clip-rule="evenodd" fill="#764670" d="M79.262,68.556c0.272,1.539,0.543,3.077,0.814,4.616
		c-0.393,0.778-0.905,0.868-1.539,0.271c-0.571-0.253-0.8-0.563-0.691-0.937c0.109-0.371,0.249-0.572,0.419-0.602
		c-0.181-1.024-0.361-2.051-0.542-3.077C78.112,68.026,78.624,67.937,79.262,68.556z"/>
	<path fill-rule="evenodd" clip-rule="evenodd" fill="#B04F79" d="M91.566,93.356c0.514-0.091,1.025-0.182,1.539-0.271
		c0.401-0.725,0.915-0.814,1.539-0.271c0.18,1.023,0.359,2.05,0.542,3.078C93.979,95.045,92.771,94.198,91.566,93.356z"/>
	<path fill-rule="evenodd" clip-rule="evenodd" fill="#A34A76" d="M88.14,53.342c-0.388-1.37-0.646-2.176-0.802-3.003
		c-0.016-0.083,0.6-0.284,0.92-0.434c0.25,0.64,0.568,1.263,0.709,1.924C89.02,52.079,88.665,52.415,88.14,53.342z"/>
	<path fill-rule="evenodd" clip-rule="evenodd" fill="#7C4771" d="M81.979,56.972c-1.207-0.025-2.813,1.282-3.349-0.996
		C79.837,56.004,81.441,54.693,81.979,56.972z"/>
	<path fill-rule="evenodd" clip-rule="evenodd" fill="#974874" d="M78.538,73.443c0.513-0.091,1.025-0.181,1.539-0.271
		c0.57,0.252,0.801,0.563,0.691,0.935c-0.108,0.372-0.249,0.573-0.42,0.605c0.091,0.511,0.182,1.023,0.271,1.538
		C78.293,76.522,78.974,74.568,78.538,73.443z"/>
	<path fill-rule="evenodd" clip-rule="evenodd" fill="#764670" d="M95.371,60.956c-0.602-0.422-1.205-0.844-1.809-1.268
		c-0.092-0.512-0.182-1.024-0.273-1.538C95.617,57.876,94.935,59.832,95.371,60.956z"/>
	<path fill-rule="evenodd" clip-rule="evenodd" fill="#974874" d="M79.262,68.556c-0.514,0.091-1.025,0.181-1.538,0.272
		c-0.091-0.513-0.182-1.025-0.271-1.54c1.206,0.027,2.81-1.282,3.349,0.996C80.288,68.375,79.776,68.466,79.262,68.556z"/>
	<path fill-rule="evenodd" clip-rule="evenodd" fill="#954874" d="M73.404,79.42c-0.726-0.381-1.249-0.654-1.774-0.929
		c0.592-0.324,1.154-0.772,1.785-0.92c0.336-0.075,0.794,0.373,1.193,0.582C74.239,78.545,73.869,78.932,73.404,79.42z"/>
	<path fill-rule="evenodd" clip-rule="evenodd" fill="#974874" d="M78.266,71.905c0.09,0.512,0.181,1.023,0.271,1.538
		c-0.604-0.424-1.207-0.847-1.81-1.267C77.241,72.085,77.752,71.995,78.266,71.905z"/>
	<path fill-rule="evenodd" clip-rule="evenodd" fill="#7C4771" d="M83.788,58.239c-0.603-0.421-1.204-0.844-1.809-1.268
		C82.583,57.396,83.185,57.818,83.788,58.239z"/>
	<path fill-rule="evenodd" clip-rule="evenodd" fill="#D8667F" d="M114.195,68.742c-0.604-0.425-1.207-0.846-1.809-1.268
		C112.988,67.896,113.592,68.317,114.195,68.742z"/>
	<path fill-rule="evenodd" clip-rule="evenodd" fill="#7C4771" d="M85.598,59.507c-0.604-0.422-1.207-0.845-1.811-1.268
		C84.391,58.662,84.995,59.085,85.598,59.507z"/>
	<path fill-rule="evenodd" clip-rule="evenodd" fill="#974874" d="M72.021,63.487c-0.603-0.422-1.205-0.845-1.809-1.268
		C70.817,62.643,71.419,63.065,72.021,63.487z"/>
	<path fill-rule="evenodd" clip-rule="evenodd" fill="#7C4771" d="M87.408,60.774c-0.603-0.423-1.206-0.846-1.81-1.268
		C86.202,59.929,86.805,60.352,87.408,60.774z"/>
	<path fill-rule="evenodd" clip-rule="evenodd" fill="#974874" d="M72.021,63.487c0.605,0.423,1.207,0.845,1.811,1.268
		C73.229,64.332,72.626,63.91,72.021,63.487z"/>
	<path fill-rule="evenodd" clip-rule="evenodd" fill="#7C4771" d="M89.218,62.042c-0.604-0.423-1.206-0.845-1.811-1.268
		c0.513-0.091,1.026-0.181,1.539-0.271C89.037,61.017,89.127,61.529,89.218,62.042z"/>
	<path fill-rule="evenodd" clip-rule="evenodd" fill="#954874" d="M76.545,80.141c-0.604-0.424-1.207-0.846-1.811-1.269
		C75.338,79.295,75.941,79.717,76.545,80.141z"/>
	<path fill-rule="evenodd" clip-rule="evenodd" fill="#974874" d="M68.801,67.228c-0.289-0.262-0.58-0.523-0.871-0.787
		c0.308-0.15,0.797-0.5,0.888-0.416c0.3,0.276,0.459,0.709,0.669,1.082C69.26,67.146,69.03,67.187,68.801,67.228z"/>
	<path fill-rule="evenodd" clip-rule="evenodd" fill="#954874" d="M76.545,80.141c0.604,0.422,1.206,0.844,1.81,1.268
		C77.751,80.984,77.149,80.563,76.545,80.141z"/>
	<path fill-rule="evenodd" clip-rule="evenodd" fill="#974874" d="M73.832,64.755c0.604,0.423,1.207,0.845,1.81,1.266
		C75.039,65.6,74.436,65.178,73.832,64.755z"/>
	<path fill-rule="evenodd" clip-rule="evenodd" fill="#954874" d="M80.166,82.675c-0.604-0.423-1.208-0.846-1.811-1.267
		C78.958,81.829,79.562,82.252,80.166,82.675z"/>
	<path fill-rule="evenodd" clip-rule="evenodd" fill="#954874" d="M81.976,83.943c-0.514,0.09-1.026,0.18-1.539,0.271
		c-0.091-0.515-0.181-1.027-0.271-1.539C80.769,83.096,81.371,83.519,81.976,83.943z"/>
	<path fill-rule="evenodd" clip-rule="evenodd" fill="#974874" d="M71.298,68.374c-0.604-0.421-1.206-0.844-1.811-1.268
		C70.092,67.53,70.694,67.953,71.298,68.374z"/>
	<path fill-rule="evenodd" clip-rule="evenodd" fill="#974874" d="M75.642,66.021c0.604,0.425,1.207,0.847,1.811,1.268
		C76.849,66.867,76.246,66.445,75.642,66.021z"/>
	<path fill-rule="evenodd" clip-rule="evenodd" fill="#974874" d="M71.298,68.374c0.604,0.424,1.206,0.846,1.81,1.267
		C72.504,69.22,71.902,68.798,71.298,68.374z"/>
	<path fill-rule="evenodd" clip-rule="evenodd" fill="#974874" d="M73.107,69.641c0.604,0.424,1.206,0.847,1.81,1.269
		C74.313,70.487,73.712,70.064,73.107,69.641z"/>
	<path fill-rule="evenodd" clip-rule="evenodd" fill="#B04F79" d="M95.187,95.892c0.604,0.422,1.206,0.843,1.81,1.268
		C96.393,96.734,95.791,96.313,95.187,95.892z"/>
	<path fill-rule="evenodd" clip-rule="evenodd" fill="#B04F79" d="M96.996,97.159c0.604,0.421,1.205,0.842,1.809,1.268
		C98.201,98.001,97.6,97.58,96.996,97.159z"/>
	<path fill-rule="evenodd" clip-rule="evenodd" fill="#B04F79" d="M98.805,98.427c0.605,0.42,1.207,0.842,1.811,1.265
		C100.012,99.269,99.41,98.847,98.805,98.427z"/>
	<path fill-rule="evenodd" clip-rule="evenodd" fill="#B04F79" d="M100.615,99.691c0.605,0.423,1.207,0.845,1.809,1.268
		C101.822,100.536,101.221,100.114,100.615,99.691z"/>
	<path fill-rule="evenodd" clip-rule="evenodd" fill="#B04F79" d="M102.424,100.959c0.605,0.424,1.209,0.844,1.813,1.267
		C103.633,101.803,103.029,101.383,102.424,100.959z"/>
	<path fill-rule="evenodd" clip-rule="evenodd" fill="#974874" d="M74.917,70.909c0.604,0.423,1.206,0.842,1.811,1.268
		C76.124,71.751,75.522,71.332,74.917,70.909z"/>
	<path fill-rule="evenodd" clip-rule="evenodd" fill="#B04F79" d="M104.236,102.226c0.483,0.27,0.97,0.538,1.457,0.808
		c-0.396,0.243-0.791,0.487-1.188,0.731C104.416,103.252,104.326,102.74,104.236,102.226z"/>
	<path fill-rule="evenodd" clip-rule="evenodd" fill="#D8667F" d="M101.162,75.8c-0.525-0.856-1.051-1.71-1.574-2.566
		c0.891-0.268,1.779-0.551,2.679-0.793c0.466-0.126,0.954-0.176,1.431-0.261c0.836-1.245,1.895-1.245,3.076-0.542
		c0.885,0.692,1.449,1.577,1.574,2.711c-0.508,0.998-1.654,1.319-2.299,2.176c0.09,0.513,0.18,1.025,0.271,1.539
		C102.998,80.959,102.921,76.468,101.162,75.8z"/>
	<path fill-rule="evenodd" clip-rule="evenodd" fill="#AC4F78" d="M101.162,75.8c1.721,0.753,3.439,1.509,5.158,2.264
		c0.694,0.934,1.387,1.869,2.082,2.807c-2.604,0.584-5.234,1.26-6.697-1.993C101.523,77.851,101.344,76.825,101.162,75.8z"/>
	<path fill-rule="evenodd" clip-rule="evenodd" fill="#DE6981" d="M102.064,89.919c-1.88-1.094-3.787-2.142-5.623-3.301
		c-0.619-0.392-2.118-0.778-0.713-1.878c0.52-0.407,1.438-0.304,2.176-0.434c0.554,0.487,1.25,0.778,1.809,1.269
		c0.604,0.421,1.205,0.844,1.81,1.266C102.6,87.709,102.942,88.706,102.064,89.919z"/>
	<path fill-rule="evenodd" clip-rule="evenodd" fill="#E56A81" d="M107.316,74.715c-0.181-1.026-0.363-2.053-0.543-3.077
		c1.81,1.267,3.621,2.534,5.43,3.801c-1.027,0.181-2.051,0.362-3.076,0.544C108.587,75.47,107.521,75.709,107.316,74.715z"/>
	<path fill-rule="evenodd" clip-rule="evenodd" fill="#C65A7C" d="M119.898,74.083c1.113,0.332,2.23,0.662,3.346,0.996
		c-0.547,0.624-1.094,1.249-1.642,1.876c-0.479-0.446-0.958-0.89-1.435-1.333C120.078,75.107,119.988,74.595,119.898,74.083z"/>
	<path fill-rule="evenodd" clip-rule="evenodd" fill="#BC567A" d="M102.064,89.919c-0.18-1.026-0.361-2.053-0.542-3.078
		c1.208,0.845,2.415,1.689,3.62,2.535C104.117,89.557,103.092,89.738,102.064,89.919z"/>
	<path fill-rule="evenodd" clip-rule="evenodd" fill="#A34A76" d="M107.316,74.715c0.604,0.422,1.207,0.844,1.811,1.268
		c-1.025,0.18-2.053,0.361-3.078,0.542C106.473,75.921,106.895,75.317,107.316,74.715z"/>
	<path fill-rule="evenodd" clip-rule="evenodd" fill="#AC4F78" d="M110.328,82.155c-0.218,0.646-0.361,1.073-0.506,1.5
		c-0.432-0.688-0.91-1.357-1.256-2.089c-0.071-0.155,0.355-0.542,0.553-0.824C109.547,81.239,109.973,81.739,110.328,82.155z"/>
	<path fill-rule="evenodd" clip-rule="evenodd" fill="#A34A76" d="M99.713,85.575c-0.604-0.425-1.205-0.847-1.809-1.269
		C98.508,84.729,99.109,85.15,99.713,85.575z"/>
	<path fill-rule="evenodd" clip-rule="evenodd" fill="#D5637E" d="M94.645,92.813c-0.514,0.091-1.025,0.182-1.539,0.271
		c0.422-0.604,0.846-1.207,1.267-1.81C94.463,91.787,94.553,92.301,94.645,92.813z"/>
	<path fill-rule="evenodd" clip-rule="evenodd" fill="#BC567A" d="M106.713,90.021c-0.146,0.208-0.34,0.579-0.402,0.561
		c-0.367-0.124-0.702-0.338-1.047-0.521c0.189-0.269,0.377-0.538,0.564-0.806C106.123,89.511,106.421,89.767,106.713,90.021z"/>
	<path fill-rule="evenodd" clip-rule="evenodd" fill="#B95379" d="M101.069,93.268c0.515-0.091,1.026-0.181,1.539-0.271
		c-0.272,0.484-0.54,0.971-0.808,1.457C101.559,94.057,101.313,93.661,101.069,93.268z"/>
	<path fill-rule="evenodd" clip-rule="evenodd" fill="#E56A81" d="M106.773,71.638c-1.025,0.181-2.051,0.361-3.076,0.542
		c-0.007-0.952-0.014-1.906-0.021-2.861C104.707,70.093,105.741,70.866,106.773,71.638z"/>
	<path fill-rule="evenodd" clip-rule="evenodd" fill="#7C4771" d="M94.766,65.862c-0.217,0.648-0.363,1.075-0.506,1.501
		c-0.434-0.691-0.914-1.358-1.256-2.089c-0.072-0.154,0.355-0.543,0.551-0.825C93.984,64.949,94.412,65.45,94.766,65.862z"/>
	<path fill-rule="evenodd" clip-rule="evenodd" fill="#764670" d="M101.049,62.503c-1.302,0.551-1.955,1.075-2.523,0.992
		c-0.498-0.07-0.898-0.82-1.344-1.271c0.479-0.085,0.961-0.258,1.432-0.229C99.194,62.024,99.767,62.223,101.049,62.503z"/>
	<path fill-rule="evenodd" clip-rule="evenodd" fill="#764670" d="M85.75,74.72c-1.299,0.549-1.954,1.074-2.521,0.992
		c-0.499-0.071-0.9-0.822-1.342-1.272c0.477-0.085,0.959-0.257,1.431-0.23C83.898,74.241,84.47,74.438,85.75,74.72z"/>
	<path fill-rule="evenodd" clip-rule="evenodd" fill="#764670" d="M80.347,74.712c-0.09-0.516-0.181-1.028-0.271-1.54
		c0.604,0.421,1.206,0.844,1.811,1.268C81.373,74.53,80.861,74.62,80.347,74.712z"/>
	<path fill-rule="evenodd" clip-rule="evenodd" fill="#7C4771" d="M91.027,63.309c-0.603-0.422-1.205-0.844-1.809-1.267
		C89.822,62.465,90.424,62.887,91.027,63.309z"/>
	<path fill-rule="evenodd" clip-rule="evenodd" fill="#764670" d="M97.182,62.224c-0.604-0.422-1.205-0.844-1.811-1.268
		C95.977,61.38,96.578,61.802,97.182,62.224z"/>
	<path fill-rule="evenodd" clip-rule="evenodd" fill="#7C4771" d="M91.027,63.309c0.604,0.424,1.206,0.846,1.809,1.268
		C92.232,64.154,91.631,63.732,91.027,63.309z"/>
</g>
</svg>
