<?xml version="1.0" encoding="utf-8"?>
<!-- Generator: Adobe Illustrator 16.0.0, SVG Export Plug-In . SVG Version: 6.00 Build 0)  -->
<!DOCTYPE svg PUBLIC "-//W3C//DTD SVG 1.1//EN" "http://www.w3.org/Graphics/SVG/1.1/DTD/svg11.dtd">
<svg version="1.1" id="Layer_4" xmlns="http://www.w3.org/2000/svg" xmlns:xlink="http://www.w3.org/1999/xlink" x="0px" y="0px"
	 width="707.332px" height="412.518px" viewBox="-25.41 -18.735 707.332 412.518"
	 enable-background="new -25.41 -18.735 707.332 412.518" xml:space="preserve">
<g>
	<g>
		<path fill="#F37785" d="M130.064,243.213c22.475,80.089,92.435,141.858,180.204,149.732
			c55.257,4.956,107.367-12.368,147.473-44.543c-51.682-6.878-108.926-19.737-167.988-38.679
			C230.463,290.708,176.223,267.781,130.064,243.213z"/>
		<path fill="#F37785" d="M528.788,137.324C508.033,54.578,436.891-9.853,347.122-17.905
			c-57.369-5.146-111.347,13.729-152.02,48.307c-18.354,15.604-34.003,34.398-46.02,55.638
			c-12.92,22.835-21.638,48.49-25.046,76.012c30.959,34.038,96.042,71.075,175.859,96.672c89.377,28.66,172.07,34.908,214.13,19.397
			c9.088-18.577,15.487-38.785,18.659-60.19c0.585-3.956,1.076-7.948,1.437-11.984C536.246,182.261,534.265,159.159,528.788,137.324
			z"/>
	</g>
	<path fill="#65456D" d="M528.788,137.324c5.476,21.834,7.456,44.937,5.331,68.623c-0.36,4.035-0.849,8.028-1.438,11.983
		c9.067,13.096,12.489,25.471,9.035,36.234c-3.392,10.586-13.106,18.574-27.69,23.954c-42.063,15.511-124.754,9.265-214.132-19.398
		c-79.82-25.594-144.901-62.631-175.858-96.67c-15.731-17.297-22.662-33.816-18.22-47.67c4.489-14,20.007-23.463,43.264-28.34
		c12.018-21.239,27.667-40.034,46.02-55.639C78.724,15.476-8.634,31.253-23.276,76.917
		c-14.777,46.063,48.348,110.417,153.341,166.296c46.158,24.568,100.396,47.497,159.688,66.511
		c59.063,18.943,116.307,31.803,167.988,38.679c118.2,15.735,207.251,0.116,222.047-46.027
		C694.453,256.654,632.38,192.912,528.788,137.324z"/>
</g>
</svg>
