<?xml version="1.0" encoding="utf-8"?>
<!-- Generator: Adobe Illustrator 16.0.0, SVG Export Plug-In . SVG Version: 6.00 Build 0)  -->
<!DOCTYPE svg PUBLIC "-//W3C//DTD SVG 1.1//EN" "http://www.w3.org/Graphics/SVG/1.1/DTD/svg11.dtd">
<svg version="1.1" id="Layer_4" xmlns="http://www.w3.org/2000/svg" xmlns:xlink="http://www.w3.org/1999/xlink" x="0px" y="0px"
	 width="715px" height="420px" viewBox="0 0 715 420" enable-background="new 0 0 715 420" xml:space="preserve">
<g>
	<g>
		<path fill="#F37785" d="M158.808,266.189c22.476,80.09,92.436,141.857,180.204,149.732
			c55.257,4.955,107.367-12.367,147.473-44.543c-51.682-6.879-108.926-19.736-167.988-38.68
			C259.207,313.686,204.968,290.758,158.808,266.189z"/>
		<path fill="#F37785" d="M557.531,160.302C536.777,77.555,465.635,13.124,375.865,5.072
			c-57.369-5.146-111.347,13.729-152.02,48.307c-18.354,15.604-34.003,34.398-46.021,55.639
			c-12.921,22.835-21.639,48.49-25.047,76.012c30.959,34.038,96.042,71.075,175.859,96.672
			c89.377,28.659,172.069,34.907,214.13,19.396c9.088-18.576,15.487-38.785,18.659-60.188c0.585-3.957,1.076-7.949,1.437-11.984
			C564.99,205.238,563.01,182.136,557.531,160.302z"/>
	</g>
	<path display="none" fill="#65456D" d="M557.531,160.302c5.478,21.834,7.456,44.938,5.331,68.623
		c-0.358,4.035-0.849,8.027-1.438,11.982c9.066,13.096,12.488,25.471,9.034,36.233c-3.393,10.586-13.105,18.574-27.689,23.955
		c-42.063,15.51-124.754,9.264-214.132-19.397c-79.82-25.595-144.901-62.632-175.858-96.67
		c-15.729-17.297-22.661-33.816-18.22-47.67c4.489-14,20.007-23.463,43.264-28.34c12.02-21.239,27.667-40.034,46.021-55.64
		C107.469,38.453,20.11,54.23,5.469,99.894C-9.308,145.957,53.817,210.311,158.81,266.189
		c46.158,24.567,100.396,47.498,159.688,66.512c59.063,18.943,116.309,31.803,167.988,38.678
		c118.2,15.736,207.251,0.117,222.047-46.025C723.197,279.631,661.125,215.889,557.531,160.302z"/>
</g>
</svg>
