<?xml version="1.0" encoding="utf-8"?>
<!-- Generator: Adobe Illustrator 16.0.0, SVG Export Plug-In . SVG Version: 6.00 Build 0)  -->
<!DOCTYPE svg PUBLIC "-//W3C//DTD SVG 1.1//EN" "http://www.w3.org/Graphics/SVG/1.1/DTD/svg11.dtd">
<svg version="1.1" id="Layer_4" xmlns="http://www.w3.org/2000/svg" xmlns:xlink="http://www.w3.org/1999/xlink" x="0px" y="0px"
	 width="875.816px" height="500px" viewBox="0 0 875.816 500" enable-background="new 0 0 875.816 500" xml:space="preserve">
<g>
	<g>
		<path fill="#F37785" d="M204.439,338.747C240.243,433.004,331.394,500,438.208,500c67.244,0,128.281-26.557,173.215-69.745
			c-63.139-2.707-133.641-12.035-206.996-28.505C330.789,385.217,262.826,363.407,204.439,338.747z"/>
		<path fill="#F37785" d="M674.337,167.731C640.318,70.08,547.455,0,438.208,0C368.39,0,305.267,28.633,259.91,74.783
			c-20.468,20.825-37.325,45.209-49.533,72.154c-13.124,28.966-20.871,60.883-22.005,94.477
			c41.062,37.741,123.646,75.406,222.778,97.664c111.008,24.923,211.516,23.51,260.615,0.229
			c8.957-23.408,14.496-48.503,16.006-74.683c0.279-4.84,0.438-9.714,0.438-14.624C688.208,221.175,683.314,193.497,674.337,167.731
			z"/>
	</g>
	<path fill="#65456D" d="M674.337,167.731c8.977,25.766,13.871,53.443,13.871,82.269c0,4.91-0.158,9.784-0.438,14.624
		c12.367,14.828,17.834,29.398,14.832,42.766c-2.951,13.147-13.813,23.844-30.838,31.917c-49.1,23.281-149.607,24.694-260.615-0.229
		c-99.133-22.258-181.717-59.923-222.778-97.664c-20.864-19.177-31.021-38.373-27.158-55.577
		c3.903-17.386,21.613-30.492,49.163-38.899c12.208-26.945,29.065-51.329,49.533-72.154C117.795,69.365,14.036,97.873,1.303,154.588
		c-12.847,57.21,70.331,128.068,203.136,184.159c58.387,24.66,126.35,46.47,199.988,63.003
		c73.355,16.47,143.857,25.798,206.996,28.505c144.404,6.192,250.223-22.308,263.09-79.615
		C887.263,293.854,805.421,223.622,674.337,167.731z"/>
</g>
</svg>
